<svg width="16.000000" height="15.000000" viewBox="0 0 16 15" fill="none" xmlns="http://www.w3.org/2000/svg" xmlns:xlink="http://www.w3.org/1999/xlink">
	<desc>
			Created with Pixso.
	</desc>
	<defs>
		<clipPath id="clip123_11">
			<rect id="Menu" rx="0.000000" width="15.000000" height="14.000000" transform="translate(0.500000 0.500000)" fill="white" fill-opacity="0"/>
		</clipPath>
	</defs>
	<rect id="Menu" rx="0.000000" width="15.000000" height="14.000000" transform="translate(0.500000 0.500000)" fill="#FFFFFF" fill-opacity="0"/>
	<g clip-path="url(#clip123_11)">
		<path id="Vector" d="M14.4 12.75C14.4 13.17 14 13.5 13.56 13.5L11.16 13.5C11.06 13.5 10.96 13.48 10.87 13.44C10.77 13.41 10.69 13.35 10.62 13.28C10.55 13.21 10.49 13.13 10.45 13.04C10.41 12.95 10.39 12.85 10.4 12.75L10.4 10.5C10.39 10.4 10.41 10.3 10.45 10.21C10.49 10.12 10.54 10.04 10.62 9.96C10.69 9.89 10.77 9.84 10.86 9.8C10.96 9.76 11.06 9.74 11.16 9.75L13.56 9.75C14 9.75 14.4 10.09 14.4 10.5L14.4 12.75ZM13.56 8.25L11.16 8.25C9.83 8.25 8.8 9.26 8.8 10.5L8.8 12.75C8.8 13.99 9.83 15 11.16 15L13.56 15C14.89 15 16 13.99 16 12.75L16 10.5C16 9.26 14.89 8.25 13.56 8.25ZM5.59 12.75C5.59 13.17 5.2 13.5 4.76 13.5L2.36 13.5C2.26 13.5 2.16 13.48 2.07 13.44C1.97 13.41 1.89 13.35 1.82 13.28C1.75 13.21 1.69 13.13 1.65 13.04C1.61 12.95 1.59 12.85 1.59 12.75L1.59 10.5C1.59 10.4 1.61 10.3 1.65 10.21C1.69 10.12 1.74 10.04 1.82 9.96C1.89 9.89 1.97 9.84 2.07 9.8C2.16 9.76 2.26 9.74 2.36 9.75L4.76 9.75C5.2 9.75 5.59 10.09 5.59 10.5L5.59 12.75ZM4.76 8.25L2.36 8.25C1.03 8.25 0 9.26 0 10.5L0 12.75C0 13.99 1.03 15 2.36 15L4.76 15C6.08 15 7.19 13.99 7.19 12.75L7.19 10.5C7.19 9.26 6.08 8.25 4.76 8.25ZM14.4 4.5C14.4 4.92 14 5.25 13.56 5.25L11.16 5.25C11.06 5.25 10.96 5.23 10.87 5.19C10.77 5.16 10.69 5.1 10.62 5.03C10.55 4.96 10.49 4.88 10.45 4.79C10.41 4.7 10.39 4.6 10.4 4.5L10.4 2.25C10.39 2.15 10.41 2.05 10.45 1.96C10.49 1.87 10.54 1.79 10.62 1.71C10.69 1.64 10.77 1.59 10.86 1.55C10.96 1.51 11.06 1.49 11.16 1.5L13.56 1.5C14 1.5 14.4 1.84 14.4 2.25L14.4 4.5ZM13.56 0L11.16 0C9.83 0 8.8 1.01 8.8 2.25L8.8 4.5C8.8 5.74 9.83 6.75 11.16 6.75L13.56 6.75C14.89 6.75 16 5.74 16 4.5L16 2.25C16 1.01 14.89 0 13.56 0ZM5.59 4.5C5.59 4.92 5.2 5.25 4.76 5.25L2.36 5.25C2.26 5.25 2.16 5.23 2.07 5.19C1.97 5.16 1.89 5.1 1.82 5.03C1.75 4.96 1.69 4.88 1.65 4.79C1.61 4.7 1.59 4.6 1.59 4.5L1.59 2.25C1.59 2.15 1.61 2.05 1.65 1.96C1.69 1.87 1.74 1.79 1.82 1.71C1.89 1.64 1.97 1.59 2.07 1.55C2.16 1.51 2.26 1.49 2.36 1.5L4.76 1.5C5.2 1.5 5.59 1.84 5.59 2.25L5.59 4.5ZM4.76 0L2.36 0C1.03 0 0 1.01 0 2.25L0 4.5C0 5.74 1.03 6.75 2.36 6.75L4.76 6.75C6.08 6.75 7.19 5.74 7.19 4.5L7.19 2.25C7.19 1.01 6.08 0 4.76 0Z" fill="#000000" fill-opacity="1.000000" fill-rule="evenodd"/>
	</g>
</svg>
